<svg width="45" height="45" viewBox="0 0 45 45" fill="none" xmlns="http://www.w3.org/2000/svg">
<path d="M6 34.8873H39V38.554H6V34.8873ZM11.5 29.3873C13.5167 29.3873 15.1667 27.7373 15.1667 25.7206C15.1667 24.804 14.8 23.8873 14.25 23.3373L16.6333 18.3873H17C17.9167 18.3873 18.8333 18.0206 19.3833 17.4706L24.3333 20.0373V20.2206C24.3333 22.2373 25.9833 23.8873 28 23.8873C30.0167 23.8873 31.6667 22.2373 31.6667 20.2206C31.6667 19.304 31.3 18.5706 30.75 17.8373L33.1333 12.8873H33.5C35.5167 12.8873 37.1667 11.2373 37.1667 9.22062C37.1667 7.20396 35.5167 5.55396 33.5 5.55396C31.4833 5.55396 29.8333 7.20396 29.8333 9.22062C29.8333 10.1373 30.2 11.054 30.75 11.604L28.3667 16.554H28C27.0833 16.554 26.1667 16.9206 25.6167 17.4706L20.6667 15.0873V14.7206C20.6667 12.704 19.0167 11.054 17 11.054C14.9833 11.054 13.3333 12.704 13.3333 14.7206C13.3333 15.6373 13.7 16.554 14.25 17.104L11.8667 22.054H11.5C9.48333 22.054 7.83333 23.704 7.83333 25.7206C7.83333 27.7373 9.48333 29.3873 11.5 29.3873Z" fill="#253750"/>
</svg>
